<svg id="visual" viewBox="0 0 1920 1080" width="1920" height="1080" xmlns="http://www.w3.org/2000/svg" xmlns:xlink="http://www.w3.org/1999/xlink" version="1.1"><rect x="0" y="0" width="1920" height="1080" fill="#001220"></rect><path d="M564 0L584.5 25.7C605 51.3 646 102.7 670.5 154.2C695 205.7 703 257.3 702 308.8C701 360.3 691 411.7 685.3 463C679.7 514.3 678.3 565.7 690.8 617C703.3 668.3 729.7 719.7 700.7 771.2C671.7 822.7 587.3 874.3 585.3 925.8C583.3 977.3 663.7 1028.7 703.8 1054.3L744 1080L0 1080L0 1054.3C0 1028.7 0 977.3 0 925.8C0 874.3 0 822.7 0 771.2C0 719.7 0 668.3 0 617C0 565.7 0 514.3 0 463C0 411.7 0 360.3 0 308.8C0 257.3 0 205.7 0 154.2C0 102.7 0 51.3 0 25.7L0 0Z" fill="#c62368"></path><path d="M405 0L422.5 25.7C440 51.3 475 102.7 501.7 154.2C528.3 205.7 546.7 257.3 535.7 308.8C524.7 360.3 484.3 411.7 497 463C509.7 514.3 575.3 565.7 579.3 617C583.3 668.3 525.7 719.7 510.8 771.2C496 822.7 524 874.3 553 925.8C582 977.3 612 1028.7 627 1054.3L642 1080L0 1080L0 1054.3C0 1028.7 0 977.3 0 925.8C0 874.3 0 822.7 0 771.2C0 719.7 0 668.3 0 617C0 565.7 0 514.3 0 463C0 411.7 0 360.3 0 308.8C0 257.3 0 205.7 0 154.2C0 102.7 0 51.3 0 25.7L0 0Z" fill="#d53867"></path><path d="M426 0L411.2 25.7C396.3 51.3 366.7 102.7 359.3 154.2C352 205.7 367 257.3 362.8 308.8C358.7 360.3 335.3 411.7 328.2 463C321 514.3 330 565.7 329.2 617C328.3 668.3 317.7 719.7 318.8 771.2C320 822.7 333 874.3 336.3 925.8C339.7 977.3 333.3 1028.7 330.2 1054.3L327 1080L0 1080L0 1054.3C0 1028.7 0 977.3 0 925.8C0 874.3 0 822.7 0 771.2C0 719.7 0 668.3 0 617C0 565.7 0 514.3 0 463C0 411.7 0 360.3 0 308.8C0 257.3 0 205.7 0 154.2C0 102.7 0 51.3 0 25.7L0 0Z" fill="#e34c67"></path><path d="M337 0L333.7 25.7C330.3 51.3 323.7 102.7 325.2 154.2C326.7 205.7 336.3 257.3 326.8 308.8C317.3 360.3 288.7 411.7 273.8 463C259 514.3 258 565.7 263.5 617C269 668.3 281 719.7 268.7 771.2C256.3 822.7 219.7 874.3 212.5 925.8C205.3 977.3 227.7 1028.7 238.8 1054.3L250 1080L0 1080L0 1054.3C0 1028.7 0 977.3 0 925.8C0 874.3 0 822.7 0 771.2C0 719.7 0 668.3 0 617C0 565.7 0 514.3 0 463C0 411.7 0 360.3 0 308.8C0 257.3 0 205.7 0 154.2C0 102.7 0 51.3 0 25.7L0 0Z" fill="#ef5f67"></path><path d="M117 0L123 25.7C129 51.3 141 102.7 138.2 154.2C135.3 205.7 117.7 257.3 108.2 308.8C98.7 360.3 97.3 411.7 103.3 463C109.3 514.3 122.7 565.7 131.3 617C140 668.3 144 719.7 145 771.2C146 822.7 144 874.3 139 925.8C134 977.3 126 1028.7 122 1054.3L118 1080L0 1080L0 1054.3C0 1028.7 0 977.3 0 925.8C0 874.3 0 822.7 0 771.2C0 719.7 0 668.3 0 617C0 565.7 0 514.3 0 463C0 411.7 0 360.3 0 308.8C0 257.3 0 205.7 0 154.2C0 102.7 0 51.3 0 25.7L0 0Z" fill="#fa7268"></path></svg>