<svg id="visual" viewBox="0 0 3840 2160" width="3840" height="2160" xmlns="http://www.w3.org/2000/svg" xmlns:xlink="http://www.w3.org/1999/xlink" version="1.1"><path d="M0 1016L58.2 954.8C116.3 893.7 232.7 771.3 349 670.5C465.3 569.7 581.7 490.3 698 443.5C814.3 396.7 930.7 382.3 1047 386C1163.3 389.7 1279.7 411.3 1396 483.3C1512.3 555.3 1628.7 677.7 1745.2 663.3C1861.7 649 1978.3 498 2094.8 462C2211.3 426 2327.7 505 2444 501.3C2560.3 497.7 2676.7 411.3 2793 379C2909.3 346.7 3025.7 368.3 3142 364.7C3258.3 361 3374.7 332 3491 400.3C3607.3 468.7 3723.7 634.3 3781.8 717.2L3840 800L3840 0L3781.8 0C3723.7 0 3607.3 0 3491 0C3374.7 0 3258.3 0 3142 0C3025.7 0 2909.3 0 2793 0C2676.7 0 2560.3 0 2444 0C2327.7 0 2211.3 0 2094.8 0C1978.3 0 1861.7 0 1745.2 0C1628.7 0 1512.3 0 1396 0C1279.7 0 1163.3 0 1047 0C930.7 0 814.3 0 698 0C581.7 0 465.3 0 349 0C232.7 0 116.3 0 58.2 0L0 0Z" fill="#e16380"></path><path d="M0 1405L58.2 1354.7C116.3 1304.3 232.7 1203.7 349 1167.7C465.3 1131.7 581.7 1160.3 698 1174.7C814.3 1189 930.7 1189 1047 1196.2C1163.3 1203.3 1279.7 1217.7 1396 1224.8C1512.3 1232 1628.7 1232 1745.2 1228.5C1861.7 1225 1978.3 1218 2094.8 1225.2C2211.3 1232.3 2327.7 1253.7 2444 1224.8C2560.3 1196 2676.7 1117 2793 1117C2909.3 1117 3025.7 1196 3142 1203.2C3258.3 1210.3 3374.7 1145.7 3491 1135C3607.3 1124.3 3723.7 1167.7 3781.8 1189.3L3840 1211L3840 798L3781.8 715.2C3723.7 632.3 3607.3 466.7 3491 398.3C3374.7 330 3258.3 359 3142 362.7C3025.7 366.3 2909.3 344.7 2793 377C2676.7 409.3 2560.3 495.7 2444 499.3C2327.7 503 2211.3 424 2094.8 460C1978.3 496 1861.7 647 1745.2 661.3C1628.7 675.7 1512.3 553.3 1396 481.3C1279.7 409.3 1163.3 387.7 1047 384C930.7 380.3 814.3 394.7 698 441.5C581.7 488.3 465.3 567.7 349 668.5C232.7 769.3 116.3 891.7 58.2 952.8L0 1014Z" fill="#d74467"></path><path d="M0 1729L58.2 1696.7C116.3 1664.3 232.7 1599.7 349 1574.5C465.3 1549.3 581.7 1563.7 698 1570.8C814.3 1578 930.7 1578 1047 1552.8C1163.3 1527.7 1279.7 1477.3 1396 1484.5C1512.3 1491.7 1628.7 1556.3 1745.2 1588.7C1861.7 1621 1978.3 1621 2094.8 1617.3C2211.3 1613.7 2327.7 1606.3 2444 1592C2560.3 1577.7 2676.7 1556.3 2793 1545.7C2909.3 1535 3025.7 1535 3142 1538.5C3258.3 1542 3374.7 1549 3491 1541.7C3607.3 1534.3 3723.7 1512.7 3781.8 1501.8L3840 1491L3840 1209L3781.8 1187.3C3723.7 1165.7 3607.3 1122.3 3491 1133C3374.7 1143.7 3258.3 1208.3 3142 1201.2C3025.7 1194 2909.3 1115 2793 1115C2676.7 1115 2560.3 1194 2444 1222.8C2327.7 1251.7 2211.3 1230.3 2094.8 1223.2C1978.3 1216 1861.7 1223 1745.2 1226.5C1628.7 1230 1512.3 1230 1396 1222.8C1279.7 1215.7 1163.3 1201.3 1047 1194.2C930.7 1187 814.3 1187 698 1172.7C581.7 1158.3 465.3 1129.7 349 1165.7C232.7 1201.7 116.3 1302.3 58.2 1352.7L0 1403Z" fill="#cc174d"></path><path d="M0 1902L58.2 1902C116.3 1902 232.7 1902 349 1905.5C465.3 1909 581.7 1916 698 1883.5C814.3 1851 930.7 1779 1047 1746.7C1163.3 1714.3 1279.7 1721.7 1396 1747C1512.3 1772.3 1628.7 1815.7 1745.2 1851.7C1861.7 1887.7 1978.3 1916.3 2094.8 1894.7C2211.3 1873 2327.7 1801 2444 1772.2C2560.3 1743.3 2676.7 1757.7 2793 1768.5C2909.3 1779.3 3025.7 1786.7 3142 1779.5C3258.3 1772.3 3374.7 1750.7 3491 1754.2C3607.3 1757.7 3723.7 1786.3 3781.8 1800.7L3840 1815L3840 1489L3781.8 1499.8C3723.7 1510.7 3607.3 1532.3 3491 1539.7C3374.7 1547 3258.3 1540 3142 1536.5C3025.7 1533 2909.3 1533 2793 1543.7C2676.7 1554.3 2560.3 1575.7 2444 1590C2327.7 1604.3 2211.3 1611.7 2094.8 1615.3C1978.3 1619 1861.7 1619 1745.2 1586.7C1628.7 1554.3 1512.3 1489.7 1396 1482.5C1279.7 1475.3 1163.3 1525.7 1047 1550.8C930.7 1576 814.3 1576 698 1568.8C581.7 1561.7 465.3 1547.3 349 1572.5C232.7 1597.7 116.3 1662.3 58.2 1694.7L0 1727Z" fill="#b01444"></path><path d="M0 2161L58.2 2161C116.3 2161 232.7 2161 349 2161C465.3 2161 581.7 2161 698 2161C814.3 2161 930.7 2161 1047 2161C1163.3 2161 1279.7 2161 1396 2161C1512.3 2161 1628.7 2161 1745.2 2161C1861.7 2161 1978.3 2161 2094.8 2161C2211.3 2161 2327.7 2161 2444 2161C2560.3 2161 2676.7 2161 2793 2161C2909.3 2161 3025.7 2161 3142 2161C3258.3 2161 3374.7 2161 3491 2161C3607.3 2161 3723.7 2161 3781.8 2161L3840 2161L3840 1813L3781.8 1798.7C3723.7 1784.3 3607.3 1755.7 3491 1752.2C3374.7 1748.7 3258.3 1770.3 3142 1777.5C3025.7 1784.7 2909.3 1777.3 2793 1766.5C2676.7 1755.7 2560.3 1741.3 2444 1770.2C2327.7 1799 2211.3 1871 2094.8 1892.7C1978.3 1914.3 1861.7 1885.7 1745.2 1849.7C1628.7 1813.7 1512.3 1770.3 1396 1745C1279.7 1719.7 1163.3 1712.3 1047 1744.7C930.7 1777 814.3 1849 698 1881.5C581.7 1914 465.3 1907 349 1903.5C232.7 1900 116.3 1900 58.2 1900L0 1900Z" fill="#95113a"></path></svg>