<svg id="visual" viewBox="0 0 1920 1080" width="1920" height="1080" xmlns="http://www.w3.org/2000/svg" xmlns:xlink="http://www.w3.org/1999/xlink" version="1.1"><rect x="0" y="0" width="1920" height="1080" fill="#001220"></rect><path d="M0 762L45.7 750.5C91.3 739 182.7 716 274.2 702.3C365.7 688.7 457.3 684.3 548.8 684.8C640.3 685.3 731.7 690.7 823 693.8C914.3 697 1005.7 698 1097 691C1188.3 684 1279.7 669 1371.2 685.3C1462.7 701.7 1554.3 749.3 1645.8 750.5C1737.3 751.7 1828.7 706.3 1874.3 683.7L1920 661L1920 1081L1874.3 1081C1828.7 1081 1737.3 1081 1645.8 1081C1554.3 1081 1462.7 1081 1371.2 1081C1279.7 1081 1188.3 1081 1097 1081C1005.7 1081 914.3 1081 823 1081C731.7 1081 640.3 1081 548.8 1081C457.3 1081 365.7 1081 274.2 1081C182.7 1081 91.3 1081 45.7 1081L0 1081Z" fill="#fa7268"></path><path d="M0 852L45.7 842C91.3 832 182.7 812 274.2 797C365.7 782 457.3 772 548.8 778.3C640.3 784.7 731.7 807.3 823 800.2C914.3 793 1005.7 756 1097 753.7C1188.3 751.3 1279.7 783.7 1371.2 792C1462.7 800.3 1554.3 784.7 1645.8 768.5C1737.3 752.3 1828.7 735.7 1874.3 727.3L1920 719L1920 1081L1874.3 1081C1828.7 1081 1737.3 1081 1645.8 1081C1554.3 1081 1462.7 1081 1371.2 1081C1279.7 1081 1188.3 1081 1097 1081C1005.7 1081 914.3 1081 823 1081C731.7 1081 640.3 1081 548.8 1081C457.3 1081 365.7 1081 274.2 1081C182.7 1081 91.3 1081 45.7 1081L0 1081Z" fill="#ef5f67"></path><path d="M0 840L45.7 848.3C91.3 856.7 182.7 873.3 274.2 877.5C365.7 881.7 457.3 873.3 548.8 875.7C640.3 878 731.7 891 823 895C914.3 899 1005.7 894 1097 894.5C1188.3 895 1279.7 901 1371.2 900.3C1462.7 899.7 1554.3 892.3 1645.8 890.5C1737.3 888.7 1828.7 892.3 1874.3 894.2L1920 896L1920 1081L1874.3 1081C1828.7 1081 1737.3 1081 1645.8 1081C1554.3 1081 1462.7 1081 1371.2 1081C1279.7 1081 1188.3 1081 1097 1081C1005.7 1081 914.3 1081 823 1081C731.7 1081 640.3 1081 548.8 1081C457.3 1081 365.7 1081 274.2 1081C182.7 1081 91.3 1081 45.7 1081L0 1081Z" fill="#e34c67"></path><path d="M0 890L45.7 891.8C91.3 893.7 182.7 897.3 274.2 896.5C365.7 895.7 457.3 890.3 548.8 895.7C640.3 901 731.7 917 823 925.3C914.3 933.7 1005.7 934.3 1097 931.3C1188.3 928.3 1279.7 921.7 1371.2 928.7C1462.7 935.7 1554.3 956.3 1645.8 960.3C1737.3 964.3 1828.7 951.7 1874.3 945.3L1920 939L1920 1081L1874.3 1081C1828.7 1081 1737.3 1081 1645.8 1081C1554.3 1081 1462.7 1081 1371.2 1081C1279.7 1081 1188.3 1081 1097 1081C1005.7 1081 914.3 1081 823 1081C731.7 1081 640.3 1081 548.8 1081C457.3 1081 365.7 1081 274.2 1081C182.7 1081 91.3 1081 45.7 1081L0 1081Z" fill="#d53867"></path><path d="M0 1013L45.7 1009.8C91.3 1006.7 182.7 1000.3 274.2 1002C365.7 1003.7 457.3 1013.3 548.8 1018.5C640.3 1023.7 731.7 1024.3 823 1021C914.3 1017.7 1005.7 1010.3 1097 1005.5C1188.3 1000.7 1279.7 998.3 1371.2 997.8C1462.7 997.3 1554.3 998.7 1645.8 1001.5C1737.3 1004.3 1828.7 1008.7 1874.3 1010.8L1920 1013L1920 1081L1874.3 1081C1828.7 1081 1737.3 1081 1645.8 1081C1554.3 1081 1462.7 1081 1371.2 1081C1279.7 1081 1188.3 1081 1097 1081C1005.7 1081 914.3 1081 823 1081C731.7 1081 640.3 1081 548.8 1081C457.3 1081 365.7 1081 274.2 1081C182.7 1081 91.3 1081 45.7 1081L0 1081Z" fill="#c62368"></path></svg>