<svg id="visual" viewBox="0 0 3840 2160" width="3840" height="2160" xmlns="http://www.w3.org/2000/svg" xmlns:xlink="http://www.w3.org/1999/xlink" version="1.1"><path d="M0 195L640 195L1280 217L1920 260L2560 152L3200 260L3840 217L3840 0L3200 0L2560 0L1920 0L1280 0L640 0L0 0Z" fill="#d861a6"></path><path d="M0 433L640 390L1280 433L1920 455L2560 368L3200 455L3840 368L3840 215L3200 258L2560 150L1920 258L1280 215L640 193L0 193Z" fill="#ce5395"></path><path d="M0 822L640 1167L1280 1081L1920 908L2560 1146L3200 951L3840 865L3840 366L3200 453L2560 366L1920 453L1280 431L640 388L0 431Z" fill="#c34683"></path><path d="M0 1124L640 1405L1280 1275L1920 1254L2560 1405L3200 1232L3840 1167L3840 863L3200 949L2560 1144L1920 906L1280 1079L640 1165L0 820Z" fill="#b73873"></path><path d="M0 1772L640 1815L1280 1859L1920 1772L2560 1794L3200 1815L3840 1815L3840 1165L3200 1230L2560 1403L1920 1252L1280 1273L640 1403L0 1122Z" fill="#ab2a62"></path><path d="M0 2161L640 2161L1280 2161L1920 2161L2560 2161L3200 2161L3840 2161L3840 1813L3200 1813L2560 1792L1920 1770L1280 1857L640 1813L0 1770Z" fill="#9f1a52"></path></svg>